<svg width="349" height="348" viewBox="0 0 349 348" fill="none" xmlns="http://www.w3.org/2000/svg">
<mask id="mask0" mask-type="alpha" maskUnits="userSpaceOnUse" x="0" y="0" width="349" height="348">
<path d="M274.796 0H73.7927C33.3306 0 0.529541 32.801 0.529541 73.2632V274.737C0.529541 315.199 33.3306 348 73.7927 348H274.796C315.258 348 348.059 315.199 348.059 274.737V73.2632C348.059 32.801 315.258 0 274.796 0Z" fill="white"/>
</mask>
<g mask="url(#mask0)">
<path fill-rule="evenodd" clip-rule="evenodd" d="M0.529541 160.895V274.737C0.529541 315.199 33.3306 348 73.7927 348H274.796C315.258 348 348.059 315.199 348.059 274.737V210.489C347.527 211.289 346.995 212.082 346.463 212.867C339.43 223.262 332.153 232.847 324.827 240.755C317.867 248.267 309.199 256.107 299.101 260.76C286.693 266.476 273.481 269.142 260.116 266.902C246.685 264.651 236.041 257.939 227.981 250.028C213.097 235.419 204.437 214.043 198.649 197.612C196.076 190.308 193.705 182.825 191.574 176.099C191.157 174.785 190.75 173.5 190.352 172.25C190.143 171.593 189.937 170.947 189.733 170.31C186.636 177.187 183.491 184.807 180.063 193.115L180.06 193.122C178.157 197.734 176.166 202.558 174.047 207.585C166.776 224.836 157.923 244.61 147.007 259.801C136.892 273.875 118.092 293.427 89.9785 289.686C74.4755 287.624 62.8226 277.904 55.1218 269.601C46.883 260.719 39.4765 249.435 32.8562 237.399C21.2105 216.226 10.2233 189.43 0.529541 160.895ZM348.059 90.7547V73.2632C348.059 32.801 315.258 0 274.796 0H73.7927C54.1118 0 36.2434 7.76035 23.0805 20.388C29.1219 54.9384 38.7937 94.4421 50.5895 131.125C60.678 162.498 71.8317 190.246 82.6909 209.989C88.1573 219.928 92.9791 226.781 96.8216 230.924C96.9216 231.032 97.0195 231.136 97.1153 231.237C98.0936 230.178 99.3271 228.687 100.82 226.61C107.547 217.249 114.252 203.015 121.637 185.494C123.277 181.603 124.968 177.504 126.696 173.313L126.696 173.312L126.697 173.312C132.126 160.148 137.927 146.08 143.718 134.695C147.604 127.053 152.282 118.954 157.948 112.171C163.255 105.817 172.33 97.0918 185.754 94.5042C202.951 91.1891 215.765 99.9623 222.841 107.967C229.206 115.167 233.375 124.11 236.234 131.146C239.287 138.658 242.04 147.12 244.547 154.996C244.993 156.395 245.432 157.782 245.869 159.159L245.869 159.161C248 165.881 250.049 172.345 252.293 178.714C258.062 195.091 263.242 204.943 267.822 209.438C268.755 210.354 269.322 210.699 269.558 210.812C269.977 210.829 271.717 210.75 275.268 209.119L275.267 209.119C275.267 209.118 275.272 209.116 275.283 209.11C275.392 209.048 276.074 208.661 277.334 207.64C278.839 206.421 280.77 204.621 283.106 202.101C287.813 197.019 293.297 189.952 299.358 180.993C311.462 163.106 324.575 139.615 337.091 114.038C340.861 106.333 344.529 98.5396 348.059 90.7547ZM202.434 147.737C202.435 147.744 202.363 147.818 202.217 147.938C202.361 147.791 202.434 147.731 202.434 147.737ZM269.517 210.809L269.522 210.81C269.434 210.804 269.435 210.795 269.517 210.809ZM269.577 210.821C269.65 210.837 269.687 210.854 269.686 210.858C269.685 210.862 269.65 210.854 269.577 210.821ZM94.2726 233.681C94.273 233.663 94.3934 233.585 94.6321 233.498C94.3914 233.656 94.2721 233.699 94.2726 233.681Z" fill="white"/>
</g>
</svg>
