<svg width="348" height="348" viewBox="0 0 348 348" fill="none" xmlns="http://www.w3.org/2000/svg">
<mask id="mask0" mask-type="alpha" maskUnits="userSpaceOnUse" x="0" y="0" width="348" height="348">
<path d="M274.266 0H73.2632C32.801 0 0 32.801 0 73.2632V274.737C0 315.199 32.801 348 73.2632 348H274.266C314.728 348 347.529 315.199 347.529 274.737V73.2632C347.529 32.801 314.728 0 274.266 0Z" fill="white"/>
</mask>
<g mask="url(#mask0)">
<path d="M274.266 0H73.2632C32.801 0 0 32.801 0 73.2632V274.737C0 315.199 32.801 348 73.2632 348H274.266C314.728 348 347.529 315.199 347.529 274.737V73.2632C347.529 32.801 314.728 0 274.266 0Z" fill="#5FA1EE"/>
<path fill-rule="evenodd" clip-rule="evenodd" d="M15.7098 -72.3152V-43.8775C15.7098 -3.6964 29.7304 67.904 50.06 131.125C60.1485 162.498 71.3022 190.246 82.1614 209.989C87.6278 219.928 92.4496 226.781 96.292 230.924C96.3921 231.032 96.49 231.136 96.5857 231.237C97.564 230.178 98.7976 228.688 100.291 226.61C107.018 217.249 113.723 203.015 121.107 185.494C122.748 181.602 124.438 177.503 126.167 173.312C131.596 160.149 137.398 146.081 143.188 134.695C147.074 127.053 151.752 118.954 157.419 112.171C162.726 105.817 171.801 97.0918 185.224 94.5042C202.421 91.1892 215.236 99.9624 222.312 107.967C228.677 115.167 232.846 124.11 235.705 131.146C238.757 138.658 241.51 147.12 244.018 154.996C244.463 156.395 244.903 157.782 245.339 159.159C247.47 165.88 249.519 172.345 251.763 178.714C257.532 195.091 262.713 204.943 267.292 209.438C268.226 210.354 268.792 210.7 269.028 210.812C269.448 210.829 271.187 210.75 274.738 209.119C274.738 209.119 274.738 209.119 274.738 209.119C274.736 209.116 275.423 208.76 276.805 207.64C278.309 206.421 280.24 204.622 282.576 202.101C287.284 197.019 292.767 189.952 298.829 180.993C310.933 163.106 324.045 139.615 336.561 114.038C361.925 62.2062 382.656 6.33405 387.942 -23.6835L392.874 -51.6902L448.887 -41.8265L443.955 -13.8197C437.272 24.1339 413.742 85.7146 387.648 139.037C374.435 166.038 360.02 192.049 345.934 212.867C338.9 223.262 331.623 232.847 324.297 240.755C317.337 248.267 308.67 256.107 298.571 260.76C286.164 266.476 272.952 269.142 259.587 266.902C246.155 264.651 235.512 257.939 227.452 250.028C212.568 235.419 203.908 214.043 198.119 197.612C195.546 190.309 193.175 182.825 191.044 176.099C190.628 174.785 190.22 173.5 189.823 172.25C189.614 171.594 189.407 170.947 189.203 170.31C186.107 177.187 182.962 184.807 179.533 193.115C177.629 197.729 175.637 202.555 173.517 207.585C166.246 224.836 157.393 244.611 146.477 259.801C136.363 273.875 117.563 293.427 89.4489 289.687C73.9459 287.624 62.293 277.904 54.5923 269.601C46.3535 260.719 38.947 249.435 32.3267 237.399C19.0125 213.192 6.55907 181.636 -4.08484 148.536C-25.2201 82.8093 -41.1655 4.78203 -41.1655 -43.8775V-72.3152H15.7098ZM201.905 147.737C201.905 147.744 201.833 147.818 201.688 147.938C201.832 147.791 201.905 147.731 201.905 147.737ZM268.987 210.809C268.989 210.809 268.991 210.81 268.993 210.81C268.904 210.804 268.906 210.795 268.987 210.809ZM269.047 210.821C269.12 210.837 269.157 210.854 269.156 210.858C269.156 210.862 269.12 210.854 269.047 210.821ZM93.743 233.681C93.7435 233.664 93.8638 233.585 94.1026 233.498C93.8619 233.656 93.7425 233.699 93.743 233.681Z" fill="white"/>
</g>
</svg>
